<svg xmlns="http://www.w3.org/2000/svg" viewBox="0 0 1200 1500" role="img" aria-labelledby="title desc">
  <title id="title">Artist studio placeholder study</title>
  <desc id="desc">Quiet painter's studio with an easel, table and soft window light.</desc>
  <defs><filter id="grain"><feTurbulence baseFrequency=".65" numOctaves="4" seed="27"/><feColorMatrix values="1 0 0 0 0 0 1 0 0 0 0 0 1 0 0 0 0 0 .12 0"/></filter><linearGradient id="wall" x1="0" y1="0" x2="1" y2="1"><stop stop-color="#ded5c7"/><stop offset="1" stop-color="#aca08f"/></linearGradient></defs>
  <rect width="1200" height="1500" fill="url(#wall)"/>
  <rect x="90" y="92" width="446" height="732" fill="#eee7dc"/>
  <path d="M313 93v731M91 461h445" stroke="#b9ad9e" stroke-width="18"/>
  <path d="M90 825h446L89 1217Z" fill="#c7b8a5" opacity=".68"/>
  <path d="M718 1280 894 429M1016 1280 894 429M668 934h425" fill="none" stroke="#554b43" stroke-width="31" stroke-linecap="round"/>
  <rect x="690" y="359" width="400" height="578" fill="#7e776c" transform="rotate(3 890 648)"/>
  <rect x="729" y="402" width="322" height="487" fill="#c39071" transform="rotate(3 890 648)"/>
  <path d="M770 718c87-171 175-198 264-80v251H731Z" fill="#575e59" opacity=".74"/>
  <ellipse cx="890" cy="579" rx="86" ry="110" fill="#d0a184"/>
  <path d="M804 551c21-91 81-136 145-108 57 24 79 89 49 164-59-47-123-65-194-56Z" fill="#473a35"/>
  <path d="M469 1180h430v64H469Z" fill="#695d53"/>
  <path d="M501 1242v179M850 1242v179" stroke="#695d53" stroke-width="33"/>
  <rect x="520" y="1103" width="104" height="76" rx="8" fill="#7e4d3f"/>
  <rect x="647" y="1084" width="68" height="95" rx="6" fill="#9b8e63"/>
  <rect x="738" y="1122" width="128" height="57" rx="7" fill="#d6c3a7"/>
  <rect width="1200" height="1500" filter="url(#grain)"/>
</svg>
